<mxfile host="app.diagrams.net" modified="2024-03-28T10:24:00.910Z" agent="Mozilla/5.0 (Macintosh; Intel Mac OS X 10_15_7) AppleWebKit/537.36 (KHTML, like Gecko) Chrome/123.0.0.0 Safari/537.36" version="24.2.0" etag="hM5a25Tx3-WUTp7pYSLI" type="github">
  <diagram name="페이지-1" id="kEgJJ4WGVZvgdrwm52iF">
    <mxGraphModel>
      <root>
        <mxCell id="0" />
        <mxCell id="1" parent="0" />
      </root>
    </mxGraphModel>
  </diagram>
</mxfile>
